<?xml version="1.0" encoding="utf-8"?>
<!-- Generator: Adobe Illustrator 27.6.1, SVG Export Plug-In . SVG Version: 6.00 Build 0)  -->
<svg version="1.1" id="Capa_1" xmlns="http://www.w3.org/2000/svg" xmlns:xlink="http://www.w3.org/1999/xlink" x="0px" y="0px"
	 viewBox="0 0 64 64" style="enable-background:new 0 0 64 64;" xml:space="preserve">
<style type="text/css">
	.st0{fill:#1EB8D1;stroke:#1EB8D1;stroke-width:2;stroke-miterlimit:10;}
	.st1{fill:#FFFFFF;stroke:#FFFFFF;stroke-width:2;stroke-miterlimit:10;}
</style>
<g>
	<g>
		<g>
			<rect x="2.2" y="47.7" class="st0" width="22.2" height="2.2"/>
		</g>
		<g>
			<rect x="2.2" y="30.7" class="st0" width="22.2" height="2.2"/>
		</g>
		<g>
			<rect x="2.2" y="14" class="st0" width="22.2" height="2.2"/>
		</g>
		<g>
			<g>
				<path class="st1" d="M46.4,32.1l-13,17.2h-1.2l13.6-18L33.2,14.6h1.2l12,16l12-16h1.2L47,31.4l13.6,18h-1.2L46.4,32.1"/>
				<polygon class="st1" points="61.8,50 59.1,50 46.4,33.2 33.7,50 31,50 45,31.4 32,14 34.8,14 46.4,29.6 58.1,14 60.8,14 
					47.8,31.4 				"/>
			</g>
		</g>
	</g>
</g>
</svg>
