<?xml version="1.0" encoding="utf-8"?>
<!-- Generator: Adobe Illustrator 27.6.1, SVG Export Plug-In . SVG Version: 6.00 Build 0)  -->
<svg version="1.1" id="Capa_1" xmlns="http://www.w3.org/2000/svg" xmlns:xlink="http://www.w3.org/1999/xlink" x="0px" y="0px"
	 viewBox="0 0 64 64" style="enable-background:new 0 0 64 64;" xml:space="preserve">
<style type="text/css">
	.st0{fill:#1EB8D1;stroke:#1EB8D1;stroke-width:3;stroke-miterlimit:10;}
	.st1{fill:#020203;stroke:#020203;stroke-width:3;stroke-miterlimit:10;}
</style>
<g>
	<rect x="2.6" y="30.6" class="st0" width="21.7" height="2.1"/>
	<rect x="2.6" y="14.3" class="st0" width="21.7" height="2.1"/>
	<g>
		<path class="st1" d="M45.8,32L33.1,48.8H32l13.2-17.5L32.9,14.9h1.2l11.6,15.6l11.6-15.6h1.2L46.4,31.3l13.2,17.5h-1.2L45.8,32"/>
		<polygon class="st1" points="60.8,49.4 58.1,49.4 45.8,33 33.4,49.4 30.8,49.4 44.4,31.3 31.7,14.3 34.5,14.3 45.8,29.5 
			57.1,14.3 59.8,14.3 47.1,31.3 		"/>
	</g>
	<rect x="2.6" y="47.6" class="st0" width="21.7" height="2.1"/>
</g>
</svg>
